{"title":"The Walking Dead S04E01 HDTV 480p x264 AAC E-Subs [GWC].mp4","uid":9045477,"size":176260027,"categoryP":"video","categoryS":"tv_shows","magnet":"?xt=urn:btih:649d5ba6313f0ce215c4e65a8c1d89dbc0e3f2f3&amp;dn=The+Walking+Dead+S04E01+HDTV+480p+x264+AAC+E-Subs+%5BGWC%5D.mp4&amp;tr=udp%3A%2F%2Ftracker.openbittorrent.com%3A80&amp;tr=udp%3A%2F%2Fopen.demonii.com%3A1337&amp;tr=udp%3A%2F%2Ftracker.coppersurfer.tk%3A6969&amp;tr=udp%3A%2F%2Fexodus.desync.com%3A6969","seeders":5,"leechers":0,"uploader":"canc232","files":1,"time":1381738508,"description":"The Walking Dead S04E01 HDTV 480p x264 AAC E-Subs [GWC]\n\n\n\nSCREENS :\n &lt;a href=&quot;\nhttp://s20.postimg.org/n0j8zw459/FITZH_2.jpg&quot; rel=&quot;nofollow&quot; target=&quot;_NEW&quot;&gt;\nhttp://s20.postimg.org/n0j8zw459/FITZH_2.jpg&lt;/a&gt;\n &lt;a href=&quot;\nhttp://s20.postimg.org/3k34r3yf1/FITZH_3.jpg&quot; rel=&quot;nofollow&quot; target=&quot;_NEW&quot;&gt;\nhttp://s20.postimg.org/3k34r3yf1/FITZH_3.jpg&lt;/a&gt;\n &lt;a href=&quot;\nhttp://s20.postimg.org/3mn0dy22l/FITZH_4.jpg&quot; rel=&quot;nofollow&quot; target=&quot;_NEW&quot;&gt;\nhttp://s20.postimg.org/3mn0dy22l/FITZH_4.jpg&lt;/a&gt;\n &lt;a href=&quot;\nhttp://s20.postimg.org/s1v8f00zh/FITZH_5.jpg&quot; rel=&quot;nofollow&quot; target=&quot;_NEW&quot;&gt;\nhttp://s20.postimg.org/s1v8f00zh/FITZH_5.jpg&lt;/a&gt;\n\n\n\nMEDIA INFO :\n\nGeneral \nFormat : MPEG-4 \nFile size : 168 MiB \nDuration : 43mn 19s \nOverall bit rate mode : Variable \nOverall bit rate : 542 Kbps \n\nVideo \nFormat : AVC \nFormat profile : &lt;a class=&quot;__cf_email__&quot; href=&quot;/cdn-cgi/l/email-protection&quot; data-cfemail=&quot;cb83a2aca38b87f8e5fb&quot;&gt;[email&amp;#160;protected]&lt;/a&gt;&lt;script cf-hash='f9e31' type=&quot;text/javascript&quot;&gt;\n/* &lt;![CDATA[ */!function(){try{var t=&quot;currentScript&quot;in document?document.currentScript:function(){for(var t=document.getElementsByTagName(&quot;script&quot;),e=t.length;e--;)if(t[e].getAttribute(&quot;cf-hash&quot;))return t[e]}();if(t&amp;&amp;t.previousSibling){var e,r,n,i,c=t.previousSibling,a=c.getAttribute(&quot;data-cfemail&quot;);if(a){for(e=&quot;&quot;,r=parseInt(a.substr(0,2),16),n=2;a.length-n;n+=2)i=parseInt(a.substr(n,2),16)^r,e+=String.fromCharCode(i);e=document.createTextNode(e),c.parentNode.replaceChild(e,c)}}}catch(u){}}();/* ]]&gt; */&lt;/script&gt; \nFormat settings, CABAC : Yes \nFormat settings, ReFrames : 4 frames \nDuration : 43mn 19s \nBit rate : 483 Kbps \nWidth : 720 pixels \nHeight : 408 pixels \nDisplay aspect ratio : 16:9 \nFrame rate : 23.976 fps \nStream size : 150 MiB (89%) \nTitle : The Walking Dead S04E01 HDTV 480p x264 AAC E-Subs [GWC] \nWriting library : x264 core\n\nAudio \nFormat : AAC \nFormat profile : HE-AAC / LC \nDuration : 43mn 19s \nBit rate mode : Variable \nChannel(s) : 2 channels \nSampling rate : 48.0 KHz / 24.0 KHz \nCompression mode : Lossy \nStream size : 17.4 MiB (10%) \nLanguage : English \n\nText \nFormat : Timed Text \nDuration : 42mn 54s \nStream size : 14.8 KiB (0%) \nTitle : English Subtitle by n17t01 \nLanguage : English","torrent":{"xt":"urn:btih:649d5ba6313f0ce215c4e65a8c1d89dbc0e3f2f3","amp;dn":"The+Walking+Dead+S04E01+HDTV+480p+x264+AAC+E-Subs+%5BGWC%5D.mp4","amp;tr":["udp%3A%2F%2Ftracker.openbittorrent.com%3A80","udp%3A%2F%2Fopen.demonii.com%3A1337","udp%3A%2F%2Ftracker.coppersurfer.tk%3A6969","udp%3A%2F%2Fexodus.desync.com%3A6969"],"infoHash":"649d5ba6313f0ce215c4e65a8c1d89dbc0e3f2f3","infoHashBuffer":{"type":"Buffer","data":[100,157,91,166,49,63,12,226,21,196,230,90,140,29,137,219,192,227,242,243]},"announce":[],"urlList":[]}}